<svg aria-hidden="true" data-prefix="fas" data-icon="cloud-download" xmlns="http://www.w3.org/2000/svg" viewBox="0 0 640 512" class="svg-inline--fa fa-cloud-download fa-w-20" font-size="48"><path fill="currentColor" d="M537.6 226.6a96 96 0 0 0-142.9-114.4 160 160 0 0 0-298.5 88A144 144 0 0 0 144 480h368a128 128 0 0 0 25.6-253.4zm-140 93L305 412.3a24 24 0 0 1-34 0l-92.7-92.7a24 24 0 0 1 0-34l10.8-10.7a24 24 0 0 1 34.5.5L256 310V184a24 24 0 0 1 24-24h16a24 24 0 0 1 24 24v126l32.4-34.6a24 24 0 0 1 34.5-.5l10.8 10.8a24 24 0 0 1 0 33.9z"/></svg>
